<svg width="18" height="16" viewBox="0 0 18 16" version="1.1" xmlns="http://www.w3.org/2000/svg" xmlns:xlink="http://www.w3.org/1999/xlink" xml:space="preserve">
    <title>EXT Icon for in2template</title>
    <rect x="0" y="0" width="18" height="16" style="fill:#a5c85a;"/>
    <path d="M13.403,11.094L13.403,12.003L4.619,12.003C4.602,11.704 4.597,11.416 4.597,11.139C4.597,10.28 4.691,9.676 4.873,9.332C5.016,9.067 5.21,8.856 5.453,8.712C5.696,8.568 6.032,8.452 6.457,8.368C6.783,8.307 7.667,8.235 9.108,8.152C10.013,8.102 10.632,8.058 10.974,8.014C11.311,7.975 11.576,7.914 11.758,7.831C11.973,7.731 12.133,7.587 12.227,7.388C12.327,7.194 12.371,6.922 12.371,6.584C12.371,5.864 12.189,5.41 11.819,5.221C11.443,5.033 10.505,4.933 9.014,4.933C8.5,4.933 7.981,4.95 7.468,4.989C6.954,5.028 6.601,5.072 6.419,5.122C6.203,5.183 6.038,5.277 5.922,5.404C5.811,5.537 5.74,5.72 5.707,5.958C5.684,6.102 5.668,6.474 5.668,7.066L4.663,7.066C4.663,6.374 4.691,5.886 4.74,5.604C4.79,5.321 4.895,5.077 5.05,4.867C5.215,4.651 5.414,4.479 5.646,4.363C5.878,4.246 6.17,4.158 6.529,4.108C7.059,4.036 7.738,3.997 8.561,3.997C9.119,3.997 9.748,4.014 10.438,4.052C11.128,4.091 11.603,4.13 11.857,4.18C12.166,4.23 12.431,4.341 12.669,4.518C12.901,4.69 13.072,4.9 13.177,5.149C13.298,5.443 13.365,5.881 13.365,6.463C13.365,6.95 13.32,7.327 13.232,7.604C13.144,7.875 12.989,8.108 12.768,8.302C12.553,8.485 12.304,8.623 12.012,8.717C11.719,8.812 11.316,8.884 10.797,8.928C9.975,9.006 8.859,9.078 7.446,9.15C6.905,9.183 6.513,9.249 6.27,9.349C6.027,9.449 5.867,9.626 5.773,9.87C5.701,10.058 5.668,10.463 5.662,11.089L13.403,11.089L13.403,11.094Z" style="fill:#fff"/>
</svg>
